<svg class="icon icon-telegram" viewBox="0 0 1024 1024" version="1.1" xmlns="http://www.w3.org/2000/svg">
  <path d="M113.448 506.084l459.72-189.412c45.38-19.73 199.282-82.864 199.282-82.864s71.032-27.62 65.11 39.458c-1.974 27.62-17.75 124.302-33.542 228.864l-49.322 309.76s-3.948 45.38-37.546 53.27c-33.598 7.89-88.786-27.62-98.646-35.516-7.89-5.916-147.98-94.702-199.282-138.11-13.812-11.832-29.594-35.516 1.974-63.136 71.032-65.11 155.876-146.006 207.166-197.302 23.678-23.678 47.354-78.922-51.296-11.832l-278.198 187.438s-31.574 19.73-90.76 1.974-128.244-41.432-128.244-41.432-47.354-29.594 33.542-61.156"/>
</svg>