<svg class="icon icon-wechat" viewBox="0 0 1024 1024" version="1.1" xmlns="http://www.w3.org/2000/svg">
  <path d="M747.389 577.45c-17.862 0-32.151-14.289-32.151-32.151s14.289-32.151 32.151-32.151 32.151 14.289 32.151 32.151c0 16.969-14.289 32.151-32.151 32.151m-158.457 0c-17.862 0-32.151-14.289-32.151-32.151s14.289-32.151 32.151-32.151 32.151 14.289 32.151 32.151c0 16.969-14.289 32.151-32.151 32.151m235.136 180.46C874.191 721.832 905.846 668.161 905.846 609.203 905.846 500.095 800.328 412.103 669.309 412.103s-236.537 87.992-236.537 197.1c0 109.11 105.519 197.102 236.537 197.102 27.259 0 52.759-3.521 77.38-10.559 1.759-0.88 4.398-0.88 7.034-0.88 4.398 0 8.796 1.759 12.311 3.518 l51.88 29.919c1.759 0.88 2.639 1.759 4.398 1.759 a7.884 7.884 0.0 007.914-7.918c0-1.761-0.88-3.521-0.88-6.161 0-0.88-7.034-24.637-10.552-39.596-0.88-1.759-0.88-3.518-0.88-5.28-0.88-6.159 1.759-10.557 6.155-13.198M494.776 391.435c-20.508 0-36.744-16.236-36.744-36.744s16.236-36.744 36.744-36.744 36.744 16.236 36.744 36.744c0 19.653-16.236 36.744-36.744 36.744m-188.311 0c-20.508 0-36.744-16.236-36.744-36.744s16.236-36.744 36.744-36.744 36.744 16.236 36.744 36.744c0 19.653-16.236 36.744-36.744 36.744m96.36-197.497C245.944 193.938 118.154 299.335 118.154 430.199c0 71.145 37.896 135.26 98.71 178.299 4.407 3.514 7.932 8.782 7.932 15.809 0 1.755-0.882 4.391-0.882 6.148-4.407 17.566-12.339 46.55-13.221 47.427-0.88 2.636-1.761 4.393-1.761 7.027 0 5.27 4.407 9.661 9.693 9.661 1.764 0 3.525-0.877 5.289-1.757 l62.574-36.009c4.407-2.636 9.696-4.393 14.982-4.393 2.646 0 5.289 0 7.932 0.88 29.085 7.904 60.811 13.173 92.541 13.173 h15.864c-6.171-18.443-9.696-37.766-9.696-57.968 0-118.57 116.335-215.182 259.112-215.182 H683.088C662.817 280.01 544.718 193.938 402.825 193.938"/>
</svg>