<svg class="icon icon-bilibili" viewBox="0 0 1024 1024" version="1.1" xmlns="http://www.w3.org/2000/svg">
  <path d="M778.667 256h-151.168l80.917-80.917c8.341-8.341 8.341-21.824 0-30.165s-21.824-8.341-30.165 0L567.168 256h-110.336l-111.083-111.083c-8.341-8.341-21.824-8.341-30.165 0s-8.341 21.824 0 30.165L396.501 256H266.667C201.963 256 149.333 308.629 149.333 373.333v320c0 64.704 52.629 117.333 117.333 117.333h42.667c0 17.685 14.315 32 32 32s32-14.315 32-32h298.667c0 17.685 14.315 32 32 32s32-14.315 32-32h42.667c64.704 0 117.333-52.629 117.333-117.333v-320C896 308.629 843.371 256 778.667 256M832 693.333c0 29.397-23.936 53.333-53.333 53.333h-512c-29.397 0-53.333-23.936-53.333-53.333v-320c0-29.397 23.936-53.333 53.333-53.333h512c29.397 0 53.333 23.936 53.333 53.333V693.333z"/>
  <rect width="58.667" height="150.933" x="653.333" y="393.877" transform="rotate(-71.567 682.667 469.333)"/>
  <rect width="150.933" height="58.667" x="308.544" y="440" transform="rotate(-18.432 384 469.333)"/>
  <path d="M598.037 587.221c-4.032 12.651-13.739 19.115-28.288 19.115c-1.621-0.277-2.965-0.277-5.12-0.533c-0.277 0-1.067-0.277-1.344 0c-7.275-1.067-15.893-3.776-22.635-9.963c-7.808-5.653-17.237-15.893-20.203-31.509c0 0-6.187 25.045-19.115 31.787c-1.621 1.067-3.499 2.432-5.397 3.499l-0.811 0.533c-6.464 3.499-14.549 5.653-23.168 5.931c-12.117-1.088-20.203-6.997-24.235-17.515l-1.344-3.499l-30.443 13.995l1.067 2.965c9.963 23.979 31.253 37.717 58.453 37.717c19.669 0 35.563-6.464 47.125-19.392c11.861 12.928 27.477 19.392 47.125 19.392c39.595 0 54.4-27.477 58.987-39.317l1.088-2.688l-30.443-14.016L598.037 587.221z"/>
</svg>